<svg xmlns="http://www.w3.org/2000/svg" width="2711.03" height="1184" viewBox="0 0 2711.03 1184">
  <metadata><?xpacket begin="﻿" id="W5M0MpCehiHzreSzNTczkc9d"?>
<x:xmpmeta xmlns:x="adobe:ns:meta/" x:xmptk="Adobe XMP Core 5.6-c142 79.160924, 2017/07/13-01:06:39        ">
   <rdf:RDF xmlns:rdf="http://www.w3.org/1999/02/22-rdf-syntax-ns#">
      <rdf:Description rdf:about=""/>
   </rdf:RDF>
</x:xmpmeta>
                                                                                                    
                                                                                                    
                                                                                                    
                                                                                                    
                                                                                                    
                                                                                                    
                                                                                                    
                                                                                                    
                                                                                                    
                                                                                                    
                                                                                                    
                                                                                                    
                                                                                                    
                                                                                                    
                                                                                                    
                                                                                                    
                                                                                                    
                                                                                                    
                                                                                                    
                                                                                                    
                           
<?xpacket end="w"?></metadata>
<defs>
    <style>
      .cls-1 {
        fill-rule: evenodd;
      }
    </style>
  </defs>
  <path class="cls-1" d="M1044.22,311.134h117.29c20.97,0,43.19-1.6,55.65,6.851,14.4,9.766,12.85,34.858,12.84,59.092,0,14.89-.71,29.6-6.85,38.538-12.4,18.079-50.25,13.7-80.47,13.7h-69.35c-12.49,0-26.61-1.352-36.81,1.713-23.09,6.934-37.819,25.347-43.668,49.671q-1.284,36.822-2.568,73.65v23.123c-3.217,15.19-.855,36.281-0.856,53.1,0,13.072-1.643,29.577.856,41.107,2.744,12.662-1.66,28.657.856,40.251V740.19c1.1,5.051-.494,13.59.856,19.7,2.886,13.061,4.736,23.444,11.134,32.543,15.68,22.32,34.58,26.547,72.77,26.548,12.96,0,31.6,2.925,35.1-6.851,4.24-5.589,1.71-23.655,1.71-32.543,0-28.5,3.52-67.969-1.71-90.779-2.63-1.643-5.14-4.2-8.56-5.138l-23.97-.857a38.7,38.7,0,0,1-26.54-23.122c-3.35-8.216-2.57-19.743-2.57-30.831,0-20.1-.63-38.986,7.7-50.527,13.64-18.885,54.33-13.7,86.47-13.7,24.6,0,58.13-3.726,72.78,6.851C1235.3,585.2,1230,629.165,1230,661.4V855.8c0,41.723,5.32,72.5-29.11,81.358-9.04,2.327-21.32.856-31.67,0.857h-62.5c-19.74,0-51.18,3.114-68.49-.857-22.12-5.073-43.833-8.951-62.5-17.128-40.907-17.918-78.8-64.728-93.319-109.619-4.185-12.942-3.742-27.584-6.849-41.963V751.324c-2.628-12.284,1.15-26.828-1.713-40.251-2.078-9.747-.855-23.878-0.856-35.113q-0.428-27.4-.856-54.809,0.428-25.261.856-50.528c0-10.956-1.194-24.786.856-34.256,2.9-13.377-.954-27.942,1.713-40.251V478.988c3.53-16.219,2.9-33.2,8.561-47.1,20.787-51.033,54.756-88.477,105.306-109.619,10.6-4.435,23.272-5.673,35.1-8.564C1030.43,312.26,1039.45,314.123,1044.22,311.134Zm635.26,51.384h30.82c17.2,0,30.73,1.127,40.24,8.564,20.27,15.859,7.21,65.326,13.7,95.06,19.36,12.474,51.4.271,74.48,7.708,9.74,3.137,19.2,9.936,23.12,18.841,5.02,11.428,6.27,58.031,1.71,71.937-2,6.089-7.21,14.439-11.99,17.985-13.01,9.647-36.94,7.7-59.93,7.707-9.72,0-23.57-.883-26.54,6-5.83,6.545-3.42,38.4-3.42,51.384V777.016c0,15.4-2.11,40.279,6.85,47.1,13.27,10.113,41.19-.06,60.78,4.282,13.35,2.957,23.81,6.378,29.97,16.271,6.25,10.04,9.62,60.54,4.28,76.22-2.68,7.865-8.83,16.469-15.41,20.553-8.89,5.515-22.27,5.139-36.82,5.139-25.13,0-51.72.835-70.2-5.139-44.04-14.239-76.68-41.794-90.75-85.64-7.41-23.082-6.85-52.127-6.85-82.214V660.545c0-21.517,1.9-48.553-2.57-65.943-12.24-5.89-36.68-2.388-47.94-9.42a39.076,39.076,0,0,1-13.7-16.272c-6.87-16.439-3.41-75.1,5.14-84.783,5.85-6.634,16.39-9.713,26.54-11.99,11.6-2.6,25.82,3.766,29.96-6,3.63-4.136,2.57-13.7,2.57-21.41q0.435-25.689.86-51.384c2.77-11.784,8.77-22.96,18.83-27.405C1667.72,363.952,1675.17,365.163,1679.48,362.518ZM1407.22,471.281c72.75-.9,125.68,40.858,147.26,90.778,6.02,13.909,9.25,30.309,12.84,46.246q0.435,19.7.86,39.394c0,32.886,6,93.338-10.27,109.619-10.3,10.3-26.95,10.279-47.95,10.277h-79.62c-15.43,0-42.9-3.8-47.09,7.708-2.59,3.456-1.85,11.965-1.71,17.984,0.38,16.356,11.26,29.251,23.97,33.4,7.52,2.452,17.19,1.713,26.54,1.713,30.84,0,80.07-6.333,93.32,11.989,9.56,13.215,7.72,37.971,7.71,60.8-0.01,14.735-2.36,25.809-8.56,34.256-11.13,15.149-45.93,11.133-71.92,11.133-20.16,0-44.12,2.6-61.64-1.713-36.03-8.863-71.64-25.9-90.75-51.384-13.49-17.988-25.28-38.256-32.54-62.517-7.87-26.3-4.28-64.46-4.28-96.774V650.268c0-17.963-1.18-36.069,2.57-51.384,6.63-27.069,17.42-49.909,31.68-69.368,13.82-18.857,41.01-38.487,64.21-47.959,10.3-4.205,23.11-5.765,34.24-8.564C1400.05,472,1404.32,473.13,1407.22,471.281Zm1.72,110.475c-6.13,4.228-13.61,4.437-17.98,10.277-10.01,13.387-12.58,39.9-7.71,60.8,12.12,7.78,44.95,6.671,60.79,2.57A36.372,36.372,0,0,0,1449.18,628V614.3C1444.43,594.54,1434.32,581.294,1408.94,581.756ZM708.613,866.938h75.341c21.4,0,37.557-.114,48.8,9.42,12.613,10.7,10.275,35.735,10.273,59.092,0,16.535-.863,27.681-7.705,36.825-18.611,24.872-88.54,3.853-123.284,13.7-20.1,5.7-37.778,17.863-45.376,35.973-10.158,24.21-2.458,59.88-8.561,88.21V1129c-1.541,7.24.91,18.23-.856,26.54-1.775,8.35-2.908,42.77-.857,52.24,2.791,12.9-1.189,29.41,1.713,42.82,4.98,23.04-.578,53.03,5.137,75.37,5.344,20.89,16.747,36.81,35.1,44.53,34.578,14.55,117.844-8.95,137.839,18.84,7.533,10.47,11.034,67.95,4.281,83.93-4.155,9.83-13.767,16.78-24.828,19.7-15.124,3.99-47.2.85-65.067,0.85-26.211,0-51.012.72-71.916-5.14-69.332-19.43-111.647-67.92-130.99-137.88-5.731-20.73-2.022-46.13-6.849-68.51-1.967-9.12.879-21.06-.856-29.12v-41.96c-4.309-20.34-.155-48.73,0-69.37,0.425-56.45-.873-121.21,16.267-161.858,16.449-39.015,53.129-80.1,91.607-96.773l38.526-12.846C692.762,868.571,703.155,870.361,708.613,866.938ZM2638.36,906.332h31.67c24.1,0,41.51,4.226,47.95,21.41,8.42,22.49-3.56,61.666,5.13,83.928,18.63,11.43,57.55-1.02,78.77,7.71,14.26,5.86,17.75,16.59,21.4,33.4v24.83c0,33.81-3.51,51.01-30.82,57.38-22.65,5.28-65.95-10.34-71.91,11.13v168.71c0,19.8-3.46,46.77,8.56,54.81,14.02,9.4,42.31-.99,61.64,3.43,12.22,2.79,21.74,7.07,27.4,16.27,6.46,10.53,8.42,61.55,3.42,77.08-2.52,7.82-7.38,15.62-13.7,19.69-5.99,3.86-11.95,2.45-20.54,4.29-16.92,3.6-61.42,1.87-76.2-1.72-8.72-2.11-15.6-2.05-23.12-5.13-40.36-16.54-70.26-49.22-82.19-94.21-4.07-15.38-2.57-34.75-2.57-53.1V1176.1c0.01-12.46.94-27.23-2.56-35.97-13.05-7.99-34.19-1.81-47.09-8.56-5.8-3.04-11.95-10.06-14.56-16.28-8.28-19.77-4.75-74.14,5.14-87.35,4.97-6.63,15.3-9.04,24.83-11.13,8.57-1.89,20.49,2.39,26.54-1.72,3.86-1.22,4.39-3.56,6.85-5.99,1.5-24.629-3.87-72.579,6.85-88.209,3.61-5.269,12.27-10.708,18.83-12.846C2631.26,907.01,2635.8,907.9,2638.36,906.332Zm-966.59,71.081c56.3-1.354,94.69,10.205,131.85,26.547,18.66,8.21,41.44,16.67,47.09,37.68,1.59,5.92-.21,14.81-1.72,18.84-2.1,5.65-6.23,10.98-8.56,16.28-5.85,13.28-10.67,26.73-18.83,37.68-6.18,8.29-22.67,17.38-37.67,11.13-10.82-4.5-21.41-12.32-32.54-17.13-15.25-6.58-29.47-7.93-47.94-11.99-7.06-1.55-22.43-2.73-30.82-.85-17.34,3.87-33.66,7.13-48.8,13.7-17.49,7.58-33.63,25.31-55.65,9.42-9.4-6.79-14.25-19.11-20.55-29.12-5.24-8.33-12.34-17.04-16.26-26.55-8.26-19.99,3.51-35.72,15.41-43.67,25.34-16.94,56.18-28.737,89.89-37.685ZM902.957,1015.95c31.968-.22,68.2-4.31,80.478,15.42,10.324,16.58,6,53.86,5.993,79.64v177.28c0,26.44-3.6,61.2,6.849,77.93,6.513,10.43,21.713,18.98,35.1,22.27,9.83,2.41,18.4-2.74,23.97-5.14,31.17-13.43,29.97-36.82,29.97-80.5V1119.58c-0.01-24.19-4.12-65.21,3.42-83.08,2.85-6.74,9.65-14.19,16.27-17.12,11.49-5.09,59.61-6.36,73.62-1.72,6.26,2.08,14.42,7.04,17.98,11.99,7.34,10.2,6.85,26.8,6.85,44.54v309.16c0,25.48,4.75,75.65-5.13,91.63-3.35,5.41-10.86,11.37-17.13,13.7-12.27,4.58-57.46,4.99-71.06.86-9.34-2.84-16.87-10.09-23.11-16.27-11.35.15-16.52,5.47-24.83,8.56-10.79,4.02-23.15,5.09-35.1,7.71-18.68,4.09-41.814-.67-55.651-5.14-40.124-12.97-74.026-38.63-89.895-75.36-11.242-26.02-9.417-64.56-9.418-101.91V1112.72c0-26.24-4.634-65.13,5.993-82.21,3.4-5.47,10.535-10.67,17.123-12.85C898.137,1016.71,900.833,1017.35,902.957,1015.95Zm1097.573,0c69.4-.44,111.54,37.22,137.84,80.5,8.76,14.42,12.92,33.93,17.12,52.24,3.25,14.18.86,33.16,0.86,48.82,0,32.74,5.67,86.65-9.42,104.48-9.64,11.4-28.39,11.99-49.65,11.99h-77.91c-16.86,0-44.37-4.26-48.8,8.56-3.32,9.59.58,22.71,3.42,29.12,20.42,46.01,118.47-1.26,142.12,36.83,6.08,9.79,5.99,24.32,5.99,40.25,0.01,30.65-.82,53.75-23.97,60.8-17.05,5.19-48.84,1.71-69.35,1.71-19.97,0-40.81,1.17-57.36-3.42-62.41-17.31-100.42-56.87-116.43-120.75-2.9-11.58-1.71-25.81-1.72-39.4v-72.79c0-42.1-4.81-94.6,6-127.61,14.86-45.39,45.46-81.2,87.32-99.34,10.05-4.35,21.06-6.61,32.54-9.42C1984.58,1017.19,1996.48,1018.47,2000.53,1015.95Zm214.89,0c40.77-.61,62.98-3.66,83.9,17.13,13.57-.14,21.85-6.82,32.54-10.28,11.28-3.64,24.86-3.4,36.81-5.99,4.81-1.05,12.79.09,16.27,0.85q9.84,0.855,19.69,1.72c18.46,4.63,32.76,10.74,46.23,19.69,29.38,19.53,50.47,42.75,61.64,80.51,4.06,13.69,2.57,32.57,2.57,49.67v251.78c0,31.19,2.04,57.58-19.69,66.8-8.04,3.41-20.03,3.42-30.82,3.42-17.54.01-39.3,1.78-50.51-5.14-21.09-13.01-16.27-54.41-16.27-88.2V1222.34c0.01-53.33,5.04-90.54-37.67-102.76-11.86-3.4-24.64.95-31.68,5.13-9.09,5.41-17.42,11.1-22.26,20.56-8.04,15.72-4.28,54.85-4.28,77.93v178.13c0.01,27.71,3.18,60.96-8.56,77.08-9.17,12.6-46.82,17.08-70.2,11.99H2212c-11.61-2.88-20.63-9.51-24.83-19.7-3.57-8.64-2.57-21.58-2.57-33.4V1134.99c0-27.71-4.51-89.31,5.99-105.34,3.21-4.89,10.41-9.87,16.27-11.99C2209.79,1016.61,2213.15,1017.4,2215.42,1015.95Zm751.7,1.71c14.22-.11,33.56-2.07,42.8,3.43,14.74,8.78,21.16,46.7,8.56,64.23-5.11,7.11-13.79,8.91-23.97,11.13q-11.13.435-22.26,0.86c-13.49,3.85-25.1,14.01-29.11,27.4-1.5,5.04-.67,13.14-1.71,17.99v29.12c0,32.16.84,56.4,23.97,65.08,20.54,7.71,40.86-2.99,53.08,14.56,8.53,12.24,8.41,44.98,0,57.38-5.13,7.58-14.2,9.68-24.82,11.99-23.01,4.99-53.33-7.15-65.93-13.7-56.66-29.47-68.93-75.15-65.92-163.58,0.57-16.79,2.31-33.97,6.85-47.95,9.43-29.05,36.52-57.78,63.35-69.37,7.1-3.07,15.45-4.93,23.12-6.85C2959.19,1018.36,2964.05,1019.57,2967.12,1017.66Zm108.73,0.86c26.28-.18,70.6-3.75,91.6,2.57,33.7,10.14,53.1,36.25,61.64,71.94,2.34,9.73.86,22.39,0.86,33.4v147.3c0,16.66-.14,33.01-9.42,40.25-14.87,11.6-50.4,7.71-76.19,7.71-16.22,0-40.4,1.87-53.94-1.72-29.82-7.89-49.3-28.49-56.51-59.09q-0.42-18.405-.85-36.82c0-12.7-1.17-25.98,1.71-36.83,7.65-28.84,25.06-47.38,53.94-54.81,14.32-3.68,52.23,3.01,59.07-6.85,5.08-6.28.92-16.12-.85-22.27-19.9-12.11-55.67.31-79.63-7.7-14.39-4.82-22.43-24.19-17.98-44.54,1.7-7.72.11-13.27,3.43-18.84,2.77-4.65,9.21-10.01,14.55-11.99C3070.2,1019.15,3073.56,1019.95,3075.85,1018.52Zm-1807.32.86c13.91-.21,28.88-0.9,38.53,3.42,9.03,4.05,14.02,13.26,21.4,18.84,12.36,9.37,24.48,19.89,40.24,25.7,16.11,5.93,51.25,11.88,73.63,6.85,14.94-3.36,37.15-11.39,53.08-4.29,14.12,6.3,24.42,30.3,32.53,43.68,7.64,12.6,18.17,29.42,7.71,46.25-10.4,16.71-29.9,22.54-51.37,28.26q-11.565,1.275-23.12,2.57c-68.71,15.63-140.12-12.34-180.64-39.4-12.48-8.32-26.51-16.14-35.11-28.26-8.83-12.45-11.98-72.08-2.56-87.35,3.08-5,9.81-11.32,15.41-13.7C1261.45,1020.59,1265.75,1021.13,1268.53,1019.38Zm731.14,107.9c-4.86,3.13-11.62,2.85-16.26,6-11.38,7.73-13.7,23.4-13.7,42.82,0,6.51-1.03,15.67,1.71,19.7,1.21,3.58,3.71,4.47,6,6.85,14.62,1.28,54.01,4.27,59.93-5.14,3.22-5.12,1.71-17.05,1.71-24.84C2039.05,1144.77,2027.75,1126.8,1999.67,1127.28Zm-340.74,19.7,10.27,1.71c2.48,3.73,6.22,6.3,7.71,11.14,3.09,10.04.86,26.02,0.86,37.68v216.67c0,20.25,2.84,47.08-5.14,59.95-3.02,4.86-9.18,11.32-14.56,13.7-9.26,4.1-56.17,5.85-69.34,2.57-32.57-8.11-29.11-36.61-29.11-76.22V1275.44c0-23.24-4.31-58.47,5.13-73.65,5.19-8.34,15.81-12.52,23.98-17.98,15.39-10.3,30.71-22.08,48.8-29.98C1642.68,1151.58,1654.86,1149.64,1658.93,1146.98Zm-408.38,41.11c13.21,1.42,19.46,10.39,28.25,16.27a266.931,266.931,0,0,0,46.24,24.83c13.03,5.36,24.64,5.96,29.1,19.7q0.435,8.565.86,17.13c2.22,10.72,0,30.02,0,43.68v106.19c0,36,4.7,64.25-24.83,73.65-8.26,2.63-19.13,1.71-29.11,1.71-24.63,0-46.29.51-56.5-13.7-8.43-11.73-6.85-33.87-6.85-53.95V1228.34c0-10.08-1.83-25.42,2.57-31.69,1.37-4.46,3.96-4.98,6.85-7.71C1249.12,1188.78,1249.55,1188.78,1250.55,1188.09Zm1874.1,11.99c-0.74.55-2.7,1.14-3.43,1.71a8.629,8.629,0,0,0-5.99,5.99c-6.68,8.52-1.36,31.28.85,39.4,8.67,5.66,16.71,6.22,29.11,3.42,5.2-7.84,10.87-44.39-1.71-48.81C3139.99,1199.06,3130.77,1199.94,3124.65,1200.08Zm-315.06,31.68c31.45-.6,61.44,26.15,47.08,59.95-5.7,13.43-18.77,24.52-34.24,28.26-30.63,7.41-57.71-28.99-48.8-56.52,4.24-13.12,12.26-22.54,23.97-28.26Q2803.585,1233.48,2809.59,1231.76Zm85.61,139.6h244c31.35,0,78.48-5.7,96.74,8.56,12.18,9.51,17.08,65.41,9.42,86.5-10.31,28.39-41.27,23.12-78.76,23.12H2961.12c-23.83,0-70.19,4.37-84.76-5.14a40.131,40.131,0,0,1-12.84-15.41c-6.25-14.75-5.77-68.32,1.71-80.5,3.05-4.96,9.08-11.29,14.56-13.71C2884.18,1372.84,2891.06,1373.89,2895.2,1371.36Z" transform="translate(-538 -311)"/>
</svg>
