<svg width="14" height="16" viewBox="0 0 14 16" fill="none" xmlns="http://www.w3.org/2000/svg">
<path fill-rule="evenodd" clip-rule="evenodd" d="M10.4365 0.691232C10.4008 0.426371 10.1755 0.222229 9.90294 0.222229C9.60555 0.222229 9.36448 0.465175 9.36448 0.764865V1.36478H4.64224V0.764865L4.63732 0.691232C4.60167 0.426371 4.37638 0.222229 4.10378 0.222229C3.8064 0.222229 3.56532 0.465175 3.56532 0.764865V1.37823C1.35857 1.53007 0 2.9598 0 5.26671V11.8143C0 14.2901 1.52315 15.7778 3.96375 15.7778H10.0362C12.4797 15.7778 13.9999 14.315 13.9999 11.869V5.26671C14.007 2.95903 12.6528 1.52971 10.4414 1.37818V0.764865L10.4365 0.691232ZM9.36448 2.45006V3.14579L9.36939 3.21942C9.40505 3.48428 9.63033 3.68843 9.90294 3.68843C10.2003 3.68843 10.4414 3.44548 10.4414 3.14579V2.46607C12.0505 2.59982 12.9283 3.56868 12.9232 5.26505V5.57933H1.07704V5.26672C1.07704 3.57145 1.95963 2.60055 3.56532 2.46619V3.14579L3.57024 3.21942C3.60589 3.48428 3.83118 3.68843 4.10378 3.68843C4.40116 3.68843 4.64224 3.44548 4.64224 3.14579V2.45006H9.36448ZM1.07704 6.6646V11.8143C1.07704 13.683 2.11063 14.6925 3.96387 14.6925H10.0363C11.8959 14.6925 12.9231 13.7041 12.9231 11.869L12.9232 6.6646H1.07704ZM10.7344 8.94758C10.7344 8.64789 10.4933 8.40494 10.1959 8.40494L10.1162 8.40989C9.8534 8.44583 9.65082 8.67286 9.65082 8.94758C9.65082 9.24727 9.8919 9.49021 10.1959 9.49021L10.269 9.48526C10.5318 9.44933 10.7344 9.22229 10.7344 8.94758ZM7.00963 8.40494C7.30701 8.40494 7.54809 8.64789 7.54809 8.94758C7.54809 9.22229 7.34552 9.44933 7.08269 9.48526L7.00963 9.49021C6.70559 9.49021 6.46452 9.24727 6.46452 8.94758C6.46452 8.67286 6.66709 8.44583 6.92991 8.40989L7.00963 8.40494ZM4.35571 8.94758C4.35571 8.64789 4.11463 8.40494 3.81725 8.40494L3.73753 8.40989C3.47471 8.44583 3.27214 8.67286 3.27214 8.94758C3.27214 9.24727 3.51321 9.49021 3.8106 9.49021L3.89031 9.48526C4.15313 9.44933 4.35571 9.22229 4.35571 8.94758ZM10.1959 11.2169C10.4933 11.2169 10.7344 11.4598 10.7344 11.7595C10.7344 12.0342 10.5318 12.2613 10.269 12.2972L10.1959 12.3022C9.8919 12.3022 9.65082 12.0592 9.65082 11.7595C9.65082 11.4848 9.8534 11.2578 10.1162 11.2218L10.1959 11.2169ZM7.54809 11.7595C7.54809 11.4598 7.30701 11.2169 7.00963 11.2169L6.92991 11.2218C6.66709 11.2578 6.46452 11.4848 6.46452 11.7595C6.46452 12.0592 6.70559 12.3022 7.00963 12.3022L7.08269 12.2972C7.34552 12.2613 7.54809 12.0342 7.54809 11.7595ZM3.81725 11.2169C4.11463 11.2169 4.35571 11.4598 4.35571 11.7595C4.35571 12.0342 4.15313 12.2613 3.89031 12.2972L3.8106 12.3022C3.51321 12.3022 3.27214 12.0592 3.27214 11.7595C3.27214 11.4848 3.47471 11.2578 3.73753 11.2218L3.81725 11.2169Z" fill="#424A80"/>
</svg>
