<svg width="14" height="14" viewBox="0 0 14 14" fill="none" xmlns="http://www.w3.org/2000/svg">
<path d="M13.0601 0.832H9.48508V0.66C9.48508 0.1 9.02308 0 8.45908 0H5.52208C4.95808 0 4.50008 0.1 4.50008 0.66V0.832H0.939079C0.859067 0.831868 0.779816 0.847531 0.705869 0.878089C0.631922 0.908648 0.564734 0.953501 0.508157 1.01008C0.45158 1.06666 0.406727 1.13384 0.376168 1.20779C0.34561 1.28174 0.329947 1.36099 0.330079 1.441V2.617C0.330079 2.77852 0.394241 2.93342 0.508451 3.04763C0.622661 3.16184 0.777562 3.226 0.939079 3.226H13.0601C13.2216 3.226 13.3765 3.16184 13.4907 3.04763C13.6049 2.93342 13.6691 2.77852 13.6691 2.617V1.441C13.6691 1.27948 13.6049 1.12458 13.4907 1.01037C13.3765 0.896162 13.2216 0.832 13.0601 0.832Z" fill="#424A80"/>
<path d="M11.7819 4.84424H2.21694C2.13095 4.845 2.0461 4.86392 1.96794 4.89978C1.88979 4.93563 1.8201 4.98761 1.76344 5.05229C1.70678 5.11697 1.66444 5.1929 1.63919 5.2751C1.61395 5.3573 1.60636 5.4439 1.61694 5.52924L2.59794 12.9512C2.63453 13.2398 2.77465 13.5052 2.99225 13.6981C3.20985 13.8911 3.49012 13.9984 3.78094 14.0002H10.2179C10.5096 13.9996 10.7911 13.8928 11.0097 13.6998C11.2284 13.5067 11.3692 13.2406 11.4059 12.9512L12.3859 5.52924C12.3967 5.44354 12.3891 5.35653 12.3637 5.27399C12.3383 5.19144 12.2956 5.11525 12.2385 5.05047C12.1814 4.98568 12.1111 4.93379 12.0324 4.89823C11.9537 4.86268 11.8683 4.84427 11.7819 4.84424Z" fill="#424A80"/>
</svg>
