<svg width="18" height="16" viewBox="0 0 18 16" fill="none" xmlns="http://www.w3.org/2000/svg">
<path fill-rule="evenodd" clip-rule="evenodd" d="M14.6102 0.636353H3.38979C1.5199 0.636353 0.000873283 2.14395 0.000873283 4.00836L4.85868e-08 6.2618C-0.000123691 6.58142 0.236121 6.84564 0.542681 6.88745L0.627907 6.89322C1.31398 6.89322 1.82234 7.37077 1.82234 8.00086C1.82234 8.65252 1.29227 9.17871 0.627907 9.17871C0.281124 9.17871 4.85868e-08 9.46129 4.85868e-08 9.80988V11.9916C4.85868e-08 13.8563 1.51843 15.3636 3.38892 15.3636H14.6111C16.4816 15.3636 18 13.8563 18 11.9916V9.80988C18 9.46129 17.7189 9.17871 17.3721 9.17871C16.7077 9.17871 16.1777 8.65252 16.1777 8.00086C16.1777 7.34893 16.708 6.82214 17.3721 6.82214C17.719 6.82214 18.0001 6.5394 18 6.19071L17.9991 4.0081C17.9991 2.14395 16.4801 0.636353 14.6102 0.636353ZM14.6105 1.89869L14.7509 1.90319C15.8651 1.97473 16.7436 2.89129 16.7436 4.00836L16.7436 5.6411L16.6763 5.65924C15.6616 5.957 14.9221 6.88991 14.9221 8.00086L14.9263 8.14471C14.9869 9.19163 15.7056 10.057 16.6763 10.3417L16.7444 10.3597V11.9916C16.7444 13.1556 15.7918 14.1013 14.6113 14.1013H11.1763V12.8474L11.1705 12.7618C11.129 12.4537 10.8662 12.2162 10.5484 12.2162C10.2016 12.2162 9.92046 12.4988 9.92046 12.8474V14.1013H3.38918L3.24867 14.0968C2.13407 14.0253 1.25608 13.109 1.25608 11.9916V10.3589L1.32425 10.3417C2.33902 10.0441 3.07841 9.11175 3.07841 8.00086L3.07428 7.8578C3.01399 6.81828 2.29948 5.99429 1.32675 5.72476L1.25524 5.70674L1.25695 4.0086C1.25695 2.84475 2.21018 1.89869 3.39005 1.89869H9.92046V3.51473L9.92619 3.60038C9.96776 3.90845 10.2305 4.1459 10.5484 4.1459C10.8951 4.1459 11.1763 3.86332 11.1763 3.51473V1.89869H14.6105ZM10.5484 5.26799C10.8662 5.26799 11.129 5.50544 11.1705 5.81351L11.1763 5.89916V9.95631C11.1763 10.3049 10.8951 10.5875 10.5484 10.5875C10.2305 10.5875 9.96776 10.35 9.92619 10.042L9.92046 9.95631V5.89916C9.92046 5.55057 10.2016 5.26799 10.5484 5.26799Z" fill="#787878"/>
</svg>
