<svg width="119" height="52" viewBox="0 0 119 52" fill="none" xmlns="http://www.w3.org/2000/svg">
<g clip-path="url(#clip0)">
<path fill-rule="evenodd" clip-rule="evenodd" d="M22.2204 0.00627755H27.3689C28.2893 0.00627755 29.2647 -0.0639935 29.8116 0.307165C30.4437 0.736077 30.3756 1.83809 30.3752 2.90242C30.3752 3.55638 30.344 4.20242 30.0745 4.59497C29.5302 5.38898 27.8688 5.19666 26.5423 5.19666H23.4982C22.95 5.19666 22.3302 5.13728 21.8825 5.27189C20.8689 5.57643 20.2224 6.38511 19.9657 7.45339C19.9281 8.53151 19.8905 9.60972 19.8529 10.688V11.7036C19.7117 12.3707 19.8154 13.297 19.8154 14.0357C19.8154 14.6098 19.7432 15.3346 19.8529 15.841C19.9734 16.3971 19.7801 17.0996 19.8905 17.6088V18.85C19.9388 19.0718 19.8688 19.4468 19.9281 19.7152C20.0548 20.2888 20.136 20.7448 20.4168 21.1444C21.1051 22.1247 21.9347 22.3103 23.611 22.3104C24.1799 22.3104 24.9981 22.4388 25.1517 22.0095C25.3378 21.764 25.2268 20.9706 25.2268 20.5802C25.2268 19.3285 25.3813 17.5951 25.1517 16.5933C25.0363 16.5212 24.9261 16.4089 24.776 16.3677L23.7238 16.33C23.4632 16.2649 23.2218 16.139 23.0193 15.9625C22.8168 15.7859 22.659 15.5639 22.5589 15.3145C22.4118 14.9537 22.4461 14.4474 22.4461 13.9605C22.4461 13.0777 22.4184 12.2482 22.784 11.7414C23.3828 10.912 25.1689 11.1397 26.5796 11.1397C27.6594 11.1397 29.1312 10.976 29.7743 11.4406C30.6079 12.043 30.3752 13.9739 30.3752 15.3896V23.9274C30.3752 25.7598 30.6087 27.1115 29.0974 27.5006C28.7006 27.6028 28.1616 27.5382 27.7073 27.5382H24.9639C24.0974 27.5382 22.7173 27.675 21.9575 27.5006C20.9866 27.2778 20.0335 27.1075 19.2141 26.7483C17.4185 25.9614 15.7552 23.9055 15.1179 21.934C14.9342 21.3656 14.9536 20.7225 14.8172 20.091V19.3389C14.7019 18.7994 14.8677 18.1607 14.742 17.5712C14.6508 17.1431 14.7045 16.5225 14.7045 16.029C14.6919 15.2268 14.6794 14.4244 14.6669 13.6219C14.6794 12.8823 14.6919 12.1426 14.7045 11.4028C14.7045 10.9216 14.6521 10.3142 14.742 9.89827C14.8693 9.31076 14.7002 8.67108 14.8172 8.13049V7.37824C14.9722 6.66592 14.9445 5.92014 15.193 5.30966C16.1055 3.06835 17.5965 1.42385 19.8154 0.495315C20.2807 0.300535 20.8369 0.246162 21.3561 0.119192C21.6151 0.0557295 22.0111 0.137551 22.2204 0.00627755ZM50.105 2.26301H51.4579C52.2129 2.26301 52.8068 2.3125 53.2242 2.63913C54.1139 3.33564 53.5407 5.50818 53.8255 6.81406C54.6754 7.36191 56.0817 6.82596 57.0948 7.15259C57.5224 7.29036 57.9376 7.58897 58.1097 7.98006C58.33 8.48197 58.3849 10.5287 58.1847 11.1395C58.0969 11.4069 57.8683 11.7736 57.6584 11.9293C57.0874 12.353 56.037 12.2675 55.0278 12.2678C54.6012 12.2678 53.9932 12.229 53.8629 12.5313C53.6069 12.8188 53.7127 14.2178 53.7127 14.7881V20.4673C53.7127 21.1437 53.6201 22.2363 54.0134 22.5359C54.5959 22.98 55.8214 22.5333 56.6813 22.724C57.2673 22.8538 57.7265 23.0041 57.9969 23.4386C58.2712 23.8795 58.4191 26.0974 58.1847 26.7861C58.0671 27.1315 57.7971 27.5094 57.5083 27.6887C57.1181 27.9309 56.5308 27.9144 55.8921 27.9144C54.789 27.9144 53.6219 27.9511 52.8107 27.6887C50.8776 27.0634 49.4449 25.8532 48.8273 23.9275C48.502 22.9138 48.5266 21.6381 48.5266 20.3168V15.352C48.5266 14.407 48.61 13.2196 48.4138 12.4559C47.8765 12.1972 46.8037 12.351 46.3094 12.0422C46.0468 11.8642 45.8386 11.6168 45.7081 11.3275C45.4065 10.6055 45.5584 8.02921 45.9337 7.60394C46.1905 7.31259 46.6531 7.17736 47.0987 7.07735C47.6079 6.96317 48.232 7.24275 48.4138 6.81384C48.5731 6.63219 48.5266 6.21215 48.5266 5.87354C48.5393 5.12138 48.5519 4.36914 48.5643 3.61681C48.6859 3.09927 48.9493 2.60843 49.3909 2.41321C49.5888 2.32599 49.9158 2.37917 50.105 2.26301ZM38.1542 7.03976C41.3476 7.00023 43.6709 8.8342 44.6182 11.0266C44.8824 11.6375 45.0242 12.3578 45.1818 13.0577C45.1945 13.6345 45.2071 14.2112 45.2195 14.7878C45.2195 16.2322 45.4829 18.8872 44.7687 19.6022C44.3166 20.0546 43.5858 20.0536 42.664 20.0535H39.1691C38.4918 20.0535 37.286 19.8867 37.1021 20.3921C36.9884 20.5439 37.0209 20.9176 37.027 21.1819C37.0437 21.9003 37.5213 22.4666 38.0792 22.6488C38.4093 22.7565 38.8337 22.724 39.2441 22.724C40.5979 22.724 42.7588 22.4459 43.3404 23.2506C43.76 23.831 43.6793 24.9182 43.6788 25.9209C43.6784 26.568 43.5752 27.0544 43.3031 27.4253C42.8145 28.0907 41.287 27.9143 40.1462 27.9143C39.2613 27.9143 38.2095 28.0285 37.4405 27.8391C35.859 27.4498 34.2959 26.7016 33.4571 25.5823C32.8649 24.7923 32.3474 23.9022 32.0287 22.8366C31.6833 21.6816 31.8409 20.0056 31.8409 18.5864V14.9007C31.8409 14.1118 31.7891 13.3166 31.9537 12.6439C32.2447 11.4551 32.7183 10.452 33.3442 9.59738C33.9509 8.7692 35.1444 7.90707 36.1627 7.49107C36.6148 7.30639 37.1771 7.23788 37.6657 7.11495C37.8395 7.07134 38.0269 7.12097 38.1542 7.03976ZM38.2297 11.8917C37.9607 12.0774 37.6323 12.0866 37.4405 12.3431C37.0011 12.931 36.8883 14.0954 37.1021 15.0133C37.6341 15.355 39.0751 15.3063 39.7704 15.1262C39.8853 14.9503 39.9644 14.7535 40.0031 14.5469C40.0418 14.3404 40.0394 14.1283 39.9961 13.9227V13.321C39.7876 12.4532 39.3438 11.8714 38.2297 11.8917ZM7.48905 24.4166H10.7961C11.7355 24.4166 12.4447 24.4116 12.9382 24.8303C13.4918 25.3002 13.3892 26.3997 13.3891 27.4256C13.3891 28.1518 13.3512 28.6413 13.0509 29.0429C12.234 30.1352 9.16447 29.2121 7.63939 29.6446C6.75711 29.8949 5.98113 30.4291 5.64762 31.2245C5.20174 32.2877 5.53973 33.8543 5.27184 35.0985V35.9261C5.2042 36.244 5.31178 36.7267 5.23426 37.0917C5.15635 37.4584 5.10662 38.9701 5.19665 39.386C5.31916 39.9526 5.14446 40.6777 5.27184 41.2666C5.49044 42.2785 5.24647 43.5956 5.49732 44.5768C5.7319 45.4942 6.23243 46.1934 7.03803 46.5325C8.55583 47.1715 12.2108 46.1394 13.0884 47.3599C13.4191 47.8197 13.5728 50.3442 13.2764 51.046C13.094 51.4778 12.6721 51.783 12.1865 51.9112C11.5227 52.0865 10.1147 51.9486 9.33044 51.9486C8.17991 51.9486 7.09128 51.9802 6.1737 51.7228C3.13039 50.8695 1.27298 48.7399 0.423925 45.6673C0.172364 44.7568 0.33517 43.6413 0.12329 42.6584C0.0369489 42.2579 0.161875 41.7335 0.0857179 41.3795V39.5366C-0.103425 38.6433 0.0789142 37.3965 0.0857179 36.49C0.104373 34.0108 0.0473964 31.1666 0.799753 29.3814C1.52178 27.6679 3.13184 25.8635 4.82082 25.1312L6.51191 24.567C6.79327 24.4883 7.24947 24.5669 7.48905 24.4166ZM92.1948 26.1467H93.585C94.6428 26.1467 95.4071 26.3323 95.6897 27.087C96.0593 28.0748 95.5335 29.7953 95.9149 30.7731C96.7327 31.2751 98.4411 30.7283 99.3725 31.1117C99.9984 31.369 100.152 31.8403 100.312 32.5786V33.6691C100.312 35.154 100.158 35.9094 98.959 36.1891C97.9648 36.421 96.0642 35.735 95.8026 36.678V44.0875C95.8026 44.9571 95.6507 46.1416 96.1783 46.4947C96.7937 46.9076 98.0355 46.4512 98.884 46.6454C99.4203 46.7679 99.8382 46.9559 100.087 47.3599C100.37 47.8224 100.456 50.0631 100.237 50.7452C100.126 51.0886 99.9129 51.4312 99.6354 51.61C99.3725 51.7795 99.1109 51.7176 98.7338 51.7984C97.9911 51.9565 96.0378 51.8805 95.3891 51.7228C95.0063 51.6302 94.7043 51.6328 94.3742 51.4975C92.6026 50.7711 91.2902 49.3358 90.7665 47.3599C90.5879 46.6844 90.6537 45.8337 90.6537 45.0278V37.9946C90.6541 37.4474 90.6949 36.7987 90.5413 36.4149C89.9685 36.064 89.0406 36.3354 88.4743 36.0389C88.2197 35.9054 87.9498 35.5971 87.8352 35.3239C87.4718 34.4557 87.6267 32.0678 88.0608 31.4876C88.279 31.1964 88.7324 31.0906 89.1507 30.9988C89.5269 30.9158 90.0501 31.1038 90.3157 30.9233C90.4851 30.8697 90.5084 30.7669 90.6164 30.6602C90.6822 29.5785 90.4465 27.4726 90.9171 26.7861C91.0755 26.5547 91.4557 26.3159 91.7436 26.222C91.8832 26.1765 92.0825 26.2156 92.1948 26.1467ZM49.7666 29.2685C52.2379 29.2091 53.923 29.7167 55.5541 30.4344C56.3732 30.795 57.3731 31.1666 57.6211 32.0893C57.6909 32.3493 57.6119 32.7397 57.5456 32.9167C57.4534 33.1649 57.2722 33.399 57.1699 33.6317C56.9131 34.215 56.7015 34.8057 56.3433 35.2866C56.0721 35.6507 55.3483 36.0499 54.6898 35.7754C54.2149 35.5778 53.75 35.2343 53.2615 35.0231C52.5921 34.7341 51.9679 34.6748 51.1572 34.4965C50.8473 34.4284 50.1726 34.3766 49.8043 34.4592C49.0432 34.6291 48.3268 34.7723 47.6623 35.0609C46.8946 35.3938 46.1861 36.1725 45.2195 35.4746C44.8069 35.1764 44.594 34.6353 44.3175 34.1957C44.0875 33.8298 43.7758 33.4473 43.6038 33.0296C43.2412 32.1517 43.7578 31.4608 44.2802 31.1117C45.3925 30.3677 46.7462 29.8496 48.2259 29.4566L49.7666 29.2685ZM16.0197 30.961C17.423 30.9514 19.0134 30.7717 19.5523 31.6383C20.0055 32.3664 19.8157 34.0037 19.8154 35.136V42.9219C19.8154 44.0831 19.6573 45.6097 20.116 46.3445C20.4019 46.8026 21.0691 47.1781 21.6567 47.3226C22.0882 47.4284 22.4644 47.2022 22.7089 47.0968C24.0771 46.507 24.0244 45.4797 24.0244 43.5614V35.5123C24.0239 34.45 23.8435 32.6484 24.1745 31.8636C24.2996 31.5676 24.5981 31.2404 24.8887 31.1117C25.393 30.8881 27.5052 30.8323 28.1202 31.0361C28.395 31.1275 28.7532 31.3453 28.9094 31.5627C29.2316 32.0107 29.2101 32.7397 29.2101 33.5189V47.0968C29.2101 48.2159 29.4186 50.4193 28.9849 51.1211C28.8379 51.3587 28.5082 51.6205 28.233 51.7228C27.6944 51.924 25.7108 51.942 25.1138 51.7606C24.7039 51.6359 24.3733 51.3175 24.0994 51.046C23.6012 51.0526 23.3743 51.2863 23.0095 51.422C22.5359 51.5985 21.9934 51.6455 21.4688 51.7606C20.6489 51.9402 19.6334 51.7312 19.026 51.5349C17.2648 50.9652 15.7767 49.8383 15.0801 48.2251C14.5867 47.0824 14.6668 45.3897 14.6667 43.7493V35.2111C14.6667 34.0586 14.4633 32.3506 14.9298 31.6005C15.079 31.3603 15.3922 31.1319 15.6814 31.0361C15.8082 30.9944 15.9265 31.0225 16.0197 30.961ZM64.1974 30.961C67.2437 30.9417 69.0935 32.5957 70.2479 34.4965C70.6324 35.1298 70.815 35.9867 70.9994 36.7908C71.142 37.4136 71.0371 38.2472 71.0371 38.935C71.0371 40.3729 71.286 42.7405 70.6236 43.5236C70.2005 44.0243 69.3775 44.0502 68.4443 44.0502H65.0244C64.2844 44.0502 63.0768 43.8631 62.8824 44.4261C62.7366 44.8473 62.9078 45.4235 63.0325 45.7051C63.9288 47.7258 68.2327 45.6497 69.2708 47.3226C69.5377 47.7526 69.5337 48.3907 69.5337 49.0903C69.5342 50.4364 69.4977 51.451 68.4816 51.7606C67.7332 51.9885 66.3378 51.8357 65.4375 51.8357C64.5609 51.8357 63.6461 51.8871 62.9197 51.6855C60.1802 50.9253 58.5118 49.1878 57.809 46.3823C57.6817 45.8737 57.7339 45.2487 57.7335 44.6519V41.455C57.7335 39.606 57.5224 37.3003 57.9969 35.8505C58.6491 33.857 59.9923 32.2843 61.8298 31.4876C62.2709 31.2966 62.7542 31.1973 63.2581 31.0739C63.4973 31.0155 64.0197 31.0717 64.1974 30.961ZM73.63 30.961C75.4196 30.9342 76.3945 30.8003 77.3128 31.7134C77.9084 31.7072 78.2719 31.4138 78.7411 31.2619C79.2362 31.102 79.8323 31.1126 80.3569 30.9988C80.568 30.9527 80.9183 31.0028 81.071 31.0361C81.359 31.0612 81.6471 31.0863 81.9353 31.1117C82.7456 31.315 83.3733 31.5834 83.9646 31.9764C85.2542 32.8342 86.1799 33.854 86.6702 35.5123C86.8484 36.1136 86.7831 36.9428 86.7831 37.6938V48.7517C86.7831 50.1215 86.8726 51.2806 85.9188 51.6855C85.5658 51.8353 85.0396 51.8357 84.5659 51.8357C83.796 51.8361 82.8409 51.9139 82.3488 51.61C81.4231 51.0386 81.6346 49.2203 81.6346 47.7363V40.0255C81.6351 37.6833 81.8559 36.049 79.9811 35.5123C79.4605 35.363 78.8996 35.5541 78.5905 35.7377C78.1915 35.9753 77.8259 36.2252 77.6134 36.6406C77.2605 37.331 77.4256 39.0496 77.4256 40.0632V47.8865C77.426 49.1035 77.5652 50.5638 77.0498 51.2718C76.6473 51.8252 74.9947 52.0219 73.9684 51.7984H73.4799C72.9702 51.6719 72.5743 51.3807 72.39 50.9332C72.2333 50.5537 72.2772 49.9854 72.2772 49.4663V36.1891C72.2772 34.9721 72.0792 32.2667 72.5401 31.5627C72.681 31.348 72.997 31.1292 73.2542 31.0361C73.3829 30.99 73.5303 31.0247 73.63 30.961ZM106.626 31.0361C107.25 31.0313 108.099 30.9452 108.504 31.1868C109.151 31.5724 109.433 33.2378 108.88 34.0077C108.656 34.32 108.275 34.399 107.828 34.4965C107.502 34.5092 107.177 34.5218 106.851 34.5343C106.259 34.7034 105.749 35.1496 105.573 35.7377C105.507 35.959 105.544 36.3147 105.498 36.5278V37.8067C105.498 39.2191 105.535 40.2837 106.55 40.6649C107.452 41.0035 108.344 40.5336 108.88 41.3044C109.255 41.8419 109.249 43.2799 108.88 43.8244C108.655 44.1573 108.257 44.2496 107.791 44.351C106.781 44.5702 105.45 44.037 104.897 43.7493C102.41 42.4551 101.871 40.4488 102.003 36.5651C102.028 35.8277 102.105 35.0732 102.304 34.4592C102.718 33.1833 103.907 31.9215 105.085 31.4125C105.396 31.2777 105.763 31.196 106.099 31.1117C106.278 31.0669 106.491 31.12 106.626 31.0361ZM111.398 31.0739C112.552 31.066 114.497 30.9092 115.419 31.1868C116.898 31.6321 117.75 32.7788 118.125 34.3463C118.228 34.7736 118.163 35.3297 118.163 35.8132V42.2825C118.163 43.0141 118.156 43.7322 117.749 44.0502C117.096 44.5596 115.537 44.3888 114.405 44.3888C113.693 44.3888 112.631 44.4709 112.037 44.3133C110.728 43.9667 109.873 43.062 109.557 41.7181C109.544 41.1792 109.532 40.6402 109.519 40.101C109.519 39.5432 109.468 38.96 109.594 38.4835C109.93 37.2168 110.694 36.4026 111.962 36.0763C112.591 35.9146 114.255 36.2085 114.555 35.7754C114.778 35.4996 114.595 35.0675 114.518 34.7974C113.644 34.2655 112.074 34.811 111.022 34.4592C110.391 34.2475 110.038 33.3968 110.233 32.503C110.308 32.164 110.238 31.9202 110.384 31.6756C110.505 31.4714 110.788 31.236 111.022 31.149C111.15 31.1016 111.298 31.1367 111.398 31.0739ZM32.0665 31.1117C32.6771 31.1025 33.3342 31.0721 33.7577 31.2619C34.1541 31.4397 34.3731 31.8442 34.6971 32.0893C35.2396 32.5008 35.7716 32.9629 36.4634 33.218C37.1706 33.4785 38.713 33.7398 39.6954 33.5189C40.3512 33.3713 41.3261 33.0186 42.0253 33.3305C42.6451 33.6072 43.0972 34.6612 43.4532 35.2488C43.7886 35.8022 44.2508 36.5409 43.7916 37.2801C43.3351 38.014 42.4792 38.27 41.5368 38.5212C41.1983 38.5586 40.8601 38.5962 40.5219 38.6341C37.5059 39.3206 34.3714 38.0921 32.5928 36.9037C32.045 36.5383 31.4291 36.1949 31.0516 35.6626C30.664 35.1158 30.5258 32.4969 30.9393 31.8262C31.0744 31.6066 31.3699 31.3291 31.6157 31.2245C31.7557 31.1648 31.9444 31.1885 32.0665 31.1117ZM64.1597 35.8505C63.9464 35.988 63.6496 35.9757 63.446 36.114C62.9464 36.4535 62.8446 37.1417 62.8446 37.9946C62.8446 38.2806 62.7994 38.6829 62.9197 38.8599C62.9728 39.0171 63.0825 39.0562 63.183 39.1607C63.8248 39.2169 65.5538 39.3482 65.8136 38.935C65.955 38.7101 65.8887 38.1861 65.8887 37.844C65.8883 36.6187 65.3923 35.8294 64.1597 35.8505ZM49.203 36.7157L49.6538 36.7908C49.7626 36.9546 49.9268 37.0675 49.9922 37.2801C50.1279 37.721 50.03 38.4229 50.03 38.935V48.4509C50.03 49.3402 50.1546 50.5186 49.8043 51.0838C49.6718 51.2972 49.4014 51.581 49.1652 51.6855C48.7588 51.8656 46.6997 51.9424 46.1216 51.7984C44.6919 51.4422 44.8438 50.1905 44.8438 48.4509V42.3576C44.8438 41.3369 44.6546 39.7896 45.069 39.1229C45.2968 38.7566 45.763 38.5731 46.1216 38.3333C46.7971 37.8809 47.4696 37.3635 48.2636 37.0166C48.4897 36.9178 49.0243 36.8326 49.203 36.7157ZM31.2772 38.5212C31.8571 38.5836 32.1314 38.9776 32.5173 39.2358C33.1564 39.6651 33.8362 40.0304 34.547 40.3263C35.1189 40.5617 35.6285 40.5881 35.8243 41.1915C35.837 41.4423 35.8496 41.6931 35.8621 41.9438C35.9595 42.4146 35.8621 43.2623 35.8621 43.8622V48.526C35.8621 50.107 36.0684 51.3478 34.7721 51.7606C34.4096 51.8761 33.9324 51.8357 33.4944 51.8357C32.4132 51.8357 31.4625 51.8581 31.0143 51.234C30.6443 50.7188 30.7136 49.7465 30.7136 48.8646V40.289C30.7136 39.8463 30.6333 39.1726 30.8264 38.8972C30.8866 38.7013 31.0003 38.6785 31.1271 38.5586C31.2145 38.5515 31.2334 38.5515 31.2772 38.5212ZM113.54 39.0478C113.508 39.072 113.422 39.0979 113.39 39.1229C113.327 39.1405 113.27 39.1739 113.224 39.22C113.178 39.266 113.144 39.3232 113.127 39.386C112.834 39.7602 113.067 40.7598 113.164 41.1164C113.545 41.365 113.898 41.3896 114.442 41.2666C114.67 40.9223 114.919 39.3171 114.367 39.1229C114.214 39.003 113.809 39.0417 113.54 39.0478ZM99.7109 40.4392C101.091 40.4128 102.408 41.5877 101.777 43.0721C101.527 43.6619 100.954 44.149 100.275 44.3133C98.93 44.6387 97.7414 43.0401 98.1325 41.831C98.3186 41.2547 98.6706 40.841 99.1846 40.5898C99.3598 40.5397 99.5352 40.4895 99.7109 40.4392ZM103.469 46.5703H114.179C115.555 46.5703 117.624 46.3199 118.425 46.9462C118.96 47.3639 119.175 49.8189 118.839 50.7452C118.386 51.9921 117.027 51.7606 115.382 51.7606H106.362C105.316 51.7606 103.281 51.9525 102.642 51.5349C102.4 51.3606 102.206 51.1278 102.078 50.8581C101.804 50.2103 101.825 47.8575 102.153 47.3226C102.287 47.1048 102.552 46.8267 102.792 46.7205C102.985 46.6353 103.287 46.6814 103.469 46.5703Z" fill="white"/>
</g>
<defs>
<clipPath id="clip0">
<rect width="119" height="52" fill="white"/>
</clipPath>
</defs>
</svg>
